<svg xmlns="http://www.w3.org/2000/svg" width="178.172" height="178.171" viewBox="0 0 178.172 178.171">
  <g id="happy" transform="translate(0 -0.002)">
    <g id="Group_1" data-name="Group 1" transform="translate(0 0.002)">
      <path id="Path_1" data-name="Path 1" d="M166.227,44.37a88.712,88.712,0,0,0-32.421-32.42A87.147,87.147,0,0,0,89.089,0,87.141,87.141,0,0,0,44.371,11.95,88.689,88.689,0,0,0,11.949,44.37,87.139,87.139,0,0,0,0,89.088a87.159,87.159,0,0,0,11.948,44.717,88.712,88.712,0,0,0,32.422,32.421,87.157,87.157,0,0,0,44.718,11.946,87.161,87.161,0,0,0,44.718-11.946,88.707,88.707,0,0,0,32.42-32.421,87.16,87.16,0,0,0,11.946-44.717A87.158,87.158,0,0,0,166.227,44.37Zm-8.816,73.543a73.185,73.185,0,0,1-39.5,39.5,73.168,73.168,0,0,1-57.65,0,73.187,73.187,0,0,1-39.5-39.5,73.177,73.177,0,0,1,0-57.65,73.2,73.2,0,0,1,39.5-39.5,73.2,73.2,0,0,1,57.65,0,73.2,73.2,0,0,1,39.5,39.5,73.168,73.168,0,0,1,0,57.65Z" transform="translate(0 -0.002)" fill="#fff"/>
      <path id="Path_2" data-name="Path 2" d="M194.392,246.989a7.286,7.286,0,0,0-5.684.465A7.016,7.016,0,0,0,185,251.862a29.662,29.662,0,0,1-56.608,0,7.41,7.41,0,1,0-14.151,4.4,42.829,42.829,0,0,0,16.007,22.622,45.049,45.049,0,0,0,52.9,0,42.867,42.867,0,0,0,16-22.622,7.38,7.38,0,0,0-4.755-9.277Z" transform="translate(-67.604 -146.42)" fill="#fff"/>
      <path id="Path_3" data-name="Path 3" d="M124.483,139.332a14.854,14.854,0,1,0-10.5-4.351A14.314,14.314,0,0,0,124.483,139.332Z" transform="translate(-65.091 -65.092)" fill="#fff"/>
      <path id="Path_4" data-name="Path 4" d="M270.657,109.633a14.854,14.854,0,1,0,10.5,4.351A14.312,14.312,0,0,0,270.657,109.633Z" transform="translate(-151.874 -65.091)" fill="#fff"/>
    </g>
  </g>
</svg>
