<?xml version="1.0" standalone="no"?><svg xmlns="http://www.w3.org/2000/svg" viewBox="0 0 1440 320"><path fill="#0abead" fill-opacity="1" d="M0,96L34.3,112C68.6,128,137,160,206,144C274.3,128,343,64,411,74.7C480,85,549,171,617,192C685.7,213,754,171,823,160C891.4,149,960,171,1029,192C1097.1,213,1166,235,1234,240C1302.9,245,1371,235,1406,229.3L1440,224L1440,320L1405.7,320C1371.4,320,1303,320,1234,320C1165.7,320,1097,320,1029,320C960,320,891,320,823,320C754.3,320,686,320,617,320C548.6,320,480,320,411,320C342.9,320,274,320,206,320C137.1,320,69,320,34,320L0,320Z"></path></svg>