<?xml version="1.0" encoding="UTF-8" standalone="no"?>
<!DOCTYPE svg PUBLIC "-//W3C//DTD SVG 1.1//EN" "http://www.w3.org/Graphics/SVG/1.1/DTD/svg11.dtd">
<svg width="100%" height="100%" viewBox="0 0 1098 694" version="1.1" xmlns="http://www.w3.org/2000/svg" xmlns:xlink="http://www.w3.org/1999/xlink" xml:space="preserve" xmlns:serif="http://www.serif.com/" style="fill-rule:evenodd;clip-rule:evenodd;stroke-linecap:round;stroke-linejoin:round;stroke-miterlimit:1.5;">
    <g transform="matrix(1,0,0,1,-92,-53)">
        <g transform="matrix(2.24228,0,0,2.24228,-529.303,-266.912)">
            <path d="M287.516,196.358C287.516,196.358 420.838,108.046 487.516,167.306C556.889,228.959 487.74,448.008 487.74,448.008L345.856,418.812C322.912,341.916 400.309,334.998 441.102,306.238L422.582,208.005L378.098,281.773L287.516,196.358" style="fill:rgb(237,234,16);stroke:black;stroke-width:0.45px;"/>
        </g>
        <g transform="matrix(-2.24228,0,0,2.24228,1809.3,-266.912)">
            <path d="M287.516,196.358C287.516,196.358 420.838,108.046 487.516,167.306C556.889,228.959 487.74,448.008 487.74,448.008L345.856,418.812C322.912,341.916 400.309,334.998 441.102,306.238L422.582,208.005L378.098,281.773L287.516,196.358" style="fill:rgb(237,234,16);stroke:black;stroke-width:0.45px;"/>
        </g>
    </g>
</svg>
