<?xml version="1.0" encoding="UTF-8" standalone="no"?>
<!DOCTYPE svg PUBLIC "-//W3C//DTD SVG 1.1//EN" "http://www.w3.org/Graphics/SVG/1.1/DTD/svg11.dtd">
<svg width="100%" height="100%" viewBox="0 0 512 512" version="1.1" xmlns="http://www.w3.org/2000/svg" xmlns:xlink="http://www.w3.org/1999/xlink" xml:space="preserve" xmlns:serif="http://www.serif.com/" style="fill-rule:evenodd;clip-rule:evenodd;stroke-linejoin:round;stroke-miterlimit:2;">
    <path d="M436.978,75.021C336.96,-25 175.056,-25.016 75.022,75.021C-25,175.041 -25.015,336.943 75.022,436.978C175.04,536.999 336.944,537.014 436.978,436.978C537,336.958 537.014,175.056 436.978,75.021ZM426.281,400.494C414.323,389.801 401.531,380.337 388.048,372.182C396.96,341.398 402.24,307.523 403.488,272.31L478.735,272.31C475.333,319.774 457.096,364.299 426.281,400.494ZM33.264,272.31L108.511,272.31C109.759,307.523 115.039,341.398 123.951,372.182C110.468,380.337 97.676,389.801 85.718,400.494C54.903,364.299 36.667,319.774 33.264,272.31ZM85.719,111.505C97.677,122.198 110.469,131.662 123.952,139.817C115.04,170.601 109.76,204.476 108.512,239.689L33.264,239.689C36.667,192.226 54.903,147.701 85.719,111.505ZM239.69,143.188C213.09,141.286 187.442,134.734 163.664,123.926C177.493,88.316 202.986,45.606 239.69,35.021L239.69,143.188ZM239.69,175.869L239.69,239.69L141.146,239.69C142.275,209.903 146.495,181.299 153.515,155.127C180.536,166.94 209.596,173.994 239.69,175.869ZM239.69,272.31L239.69,336.131C209.596,338.006 180.536,345.06 153.515,356.873C146.495,330.701 142.275,302.097 141.146,272.31L239.69,272.31ZM239.69,368.812L239.69,476.978C202.988,466.393 177.495,423.688 163.664,388.074C187.442,377.266 213.09,370.714 239.69,368.812ZM272.31,368.812C298.91,370.714 324.558,377.266 348.336,388.074C334.506,423.685 309.014,466.393 272.31,476.978L272.31,368.812ZM272.31,336.131L272.31,272.31L370.854,272.31C369.725,302.097 365.505,330.701 358.485,356.873C331.464,345.06 302.404,338.006 272.31,336.131ZM272.31,239.69L272.31,175.869C302.404,173.994 331.464,166.94 358.485,155.127C365.505,181.299 369.725,209.903 370.854,239.69L272.31,239.69ZM272.31,143.188L272.31,35.022C309.014,45.607 334.507,88.317 348.336,123.927C324.558,134.734 298.91,141.286 272.31,143.188ZM345.57,51.306C366.448,60.449 385.926,72.846 403.387,88.227C395.075,95.555 386.306,102.2 377.148,108.142C369.016,88.006 358.627,68.438 345.57,51.306ZM134.851,108.142C125.693,102.2 116.925,95.555 108.612,88.227C126.073,72.846 145.551,60.449 166.429,51.306C153.372,68.44 142.983,88.008 134.851,108.142ZM134.852,403.858C142.983,423.993 153.374,443.562 166.43,460.694C145.552,451.551 126.074,439.154 108.613,423.773C116.925,416.445 125.694,409.8 134.852,403.858ZM377.148,403.858C386.306,409.8 395.075,416.445 403.387,423.772C385.926,439.153 366.448,451.55 345.57,460.693C358.626,443.563 369.016,423.994 377.148,403.858ZM403.489,239.69C402.241,204.477 396.961,170.601 388.049,139.818C401.532,131.663 414.323,122.199 426.282,111.506C457.097,147.701 475.333,192.226 478.736,239.69L403.489,239.69Z" style="fill:white;fill-rule:nonzero;"/>
</svg>
