<svg id="international" xmlns="http://www.w3.org/2000/svg" width="176.999" height="177" viewBox="0 0 176.999 177">
  <path id="Path_5" data-name="Path 5" d="M165.133,44.076a88.128,88.128,0,0,0-32.208-32.207A86.568,86.568,0,0,0,88.5,0,86.572,86.572,0,0,0,44.079,11.869,88.106,88.106,0,0,0,11.87,44.076,86.566,86.566,0,0,0,0,88.5a86.587,86.587,0,0,0,11.869,44.423,88.15,88.15,0,0,0,32.208,32.208A86.577,86.577,0,0,0,88.5,177a86.578,86.578,0,0,0,44.424-11.869,88.105,88.105,0,0,0,32.207-32.208A86.589,86.589,0,0,0,177,88.5,86.592,86.592,0,0,0,165.133,44.076ZM99.571,135.064c-.772-.92-1.039-1.69-.807-2.307a1.691,1.691,0,0,1-.806,1.037,10.99,10.99,0,0,0-2.075-1.727,10.873,10.873,0,0,1-2.075-1.732c-.155-.229-.364-.555-.634-.978s-.614-.979-1.037-1.671a11.609,11.609,0,0,1-.92-1.788c-.191-.5-.209-.787-.058-.862q-2.188.924-6.337-1.268a11.34,11.34,0,0,1-2.42-2.42q-1.612-1.96-3.342-1.729-.575.116-1.556.4a6.025,6.025,0,0,1-1.671.287,5.259,5.259,0,0,1-1.845-.462,14.859,14.859,0,0,1-2.477-1.324,16.515,16.515,0,0,0-2.131-1.208l-1.5-.807-1.844-.92a5.66,5.66,0,0,1-1.441-1.094,3.651,3.651,0,0,1-.978-1.557,22.186,22.186,0,0,1-.576-2.766,8.608,8.608,0,0,0-.922-2.995,10.387,10.387,0,0,0-1.959-2.3,3.632,3.632,0,0,0-2.3-1.155c.615,0,.615-.515,0-1.555a11.674,11.674,0,0,0-1.614-2.246c-.154-.155-.615-.653-1.383-1.5s-1.421-1.573-1.959-2.191a9.211,9.211,0,0,1-1.383-2.132,2.444,2.444,0,0,1-.23-2.017c.076-.076,0-.192-.231-.345a5.972,5.972,0,0,0-.864-.461c-.345-.152-.672-.287-.978-.4a2.267,2.267,0,0,0-.692-.172,8.805,8.805,0,0,1,.519,1.671,6.634,6.634,0,0,0,.633,1.788q.232.46,1.959,3.34,3,4.84,2.766,7.146c-.461.152-.769.077-.923-.229a4.194,4.194,0,0,1-.346-1.268,7.246,7.246,0,0,0-.231-1.152,4.334,4.334,0,0,0-1.787-1.5,3.914,3.914,0,0,1-1.786-1.613.537.537,0,0,0,.288-.116.557.557,0,0,1,.289-.113A3.959,3.959,0,0,0,48.7,96q-1.326-1.612-1.095-2.3a5.644,5.644,0,0,1-1.614-2.707,10.161,10.161,0,0,0-1.153-2.595,4.929,4.929,0,0,0-1.152-1.209q-.692-.517-1.729-1.152t-1.383-.864a4.437,4.437,0,0,1-.922-1.035q-3.8-4.611-2.3-4.956-1.5.345-2.478-2.248a7.177,7.177,0,0,1-.634-3.976l-.23-.115a17.086,17.086,0,0,0,.115-2.709,26.649,26.649,0,0,1,.289-4.091q.289-1.844,1.095-1.845-.806.115-1.209-1.44a3.084,3.084,0,0,1-.058-2.133c.077-.231.423-.075,1.037.461a5.9,5.9,0,0,1,1.036,1.036q1.5-.809,1.153-2.075a15.818,15.818,0,0,0-2.42-2.42,42.9,42.9,0,0,0-5.07-3.112,1.617,1.617,0,0,0-.347-2.189q-1.152.692-1.325.347a4.463,4.463,0,0,1-.289-1.267c-.076-.614-.269-.959-.575-1.036a3.044,3.044,0,0,1-1.383-.921,72.723,72.723,0,0,1,27.08-25.583,18.442,18.442,0,0,1,2.534-.115,4.605,4.605,0,0,1,1.728.576,9.091,9.091,0,0,1,1.671,1.267q.866.8,1.325,1.152a2.82,2.82,0,0,0-.576-2.075q.229-.692,2.535-1.383,2.649-.346,3.457.116a30.315,30.315,0,0,0-2.3-2.881l-.576.575q-.923-.806-4.84.807c-.153.076-.537.289-1.152.633a13.471,13.471,0,0,1-1.5.749,2.839,2.839,0,0,1-1.383.115A65.28,65.28,0,0,1,64.888,18.67a11.381,11.381,0,0,1,1.152.978q.806.749,1.267,1.095c-.23-.153-.385-.077-.461.23a2.972,2.972,0,0,0,0,2.3A2.141,2.141,0,0,0,68.4,24.2a8.58,8.58,0,0,0,2.362-.116,14.351,14.351,0,0,1,1.845-.23l1.153.116q3.686.346,2.881-.692a7.4,7.4,0,0,1,.806,1.9A5.112,5.112,0,0,0,78.484,27.2q.577-.463.23-1.614a1.892,1.892,0,0,1,0-1.614,1.312,1.312,0,0,1,.691-.461q.577-.229,1.325-.517t.981-.4q.691-.462-.923-1.614a7.869,7.869,0,0,0-.978-.346c-.5-.151-.942-.307-1.325-.46a7.322,7.322,0,0,1-1.209-.633.985.985,0,0,1-.578-.923,3.116,3.116,0,0,1,.634-1.325,3.138,3.138,0,0,1,2.247-.461,5.7,5.7,0,0,1,2.362.575q3.113,1.729.923,3.112a8.268,8.268,0,0,1,2.766.921q1.612.808,1.267,1.73.922-1.728,1.844-1.73c.383.078.75.6,1.095,1.557a9.46,9.46,0,0,0,.632,1.556c.616.844,1.227,1.036,1.845.575a9.721,9.721,0,0,0,1.9-2.016q.978-1.324,1.094-1.209c-.768-.306-.848-.614-.229-.921a3.687,3.687,0,0,1,3.111-.575,4.366,4.366,0,0,1,.919,1.035q1.034,2.077-.345,1.96a2.514,2.514,0,0,1,.865,2.3c-.116.922-.714,1.345-1.789,1.267a4.089,4.089,0,0,1-1.673-.576,5.177,5.177,0,0,0-1.671-.633,2.78,2.78,0,0,0-1.613.633,14.584,14.584,0,0,0-1.21,1.959,8.821,8.821,0,0,1-1.326,1.959q-1.727,1.728-5.762,1.267c.231,0,.211.23-.058.692a13.292,13.292,0,0,1-1.095,1.556q-.692.864-.806.979a5.879,5.879,0,0,0-1.383,2.651q0,.231-.116,1.555a5.8,5.8,0,0,1-.461,2.017q1.383-.346,2.189,1.383.692,1.614,0,1.729a13.6,13.6,0,0,1,6.686.461q4.148,1.5,4.726,3,.688-1.038,3.34-.116c.692.383,1.3,1.537,1.845,3.457a7.447,7.447,0,0,0,1.556,3,1.889,1.889,0,0,0,2.363.691l.344-.23c.308-.153.557-.288.748-.4a4.874,4.874,0,0,0,.632-.461,1.093,1.093,0,0,0,.4-.517.487.487,0,0,0-.171-.461,4.161,4.161,0,0,1-1.21-1.9,2.424,2.424,0,0,1,.174-2.134,7.7,7.7,0,0,1,1.842-1.383,4.165,4.165,0,0,0,1.844-1.844,2.031,2.031,0,0,0-1.151-2.479q-1.613-.978-1.614-1.786a2.259,2.259,0,0,1,.748-1.383,1.815,1.815,0,0,0,.634-1.5,5.6,5.6,0,0,0-.4-1.441,7.93,7.93,0,0,1-.46-1.614,1.713,1.713,0,0,1,.518-1.209q.8-.462,3.8.057a12.865,12.865,0,0,1,3.92,1.095,10.225,10.225,0,0,0,1.5.692,13.876,13.876,0,0,1,2.018.979c.573.345.9.67.976.978h-.575a2.765,2.765,0,0,1,.978,1.614,1.2,1.2,0,0,1-.862,1.385,3.629,3.629,0,0,1,1.844.345q1.844.691.116,1.267a7.393,7.393,0,0,1,.977-.231,2.654,2.654,0,0,0,.979-.345,3.239,3.239,0,0,0,.575-.4,1.9,1.9,0,0,1,.519-.345,3.678,3.678,0,0,1,.519-.116.939.939,0,0,1,.688.173c.08,0,.251-.193.519-.576s.558-.768.863-1.151.575-.575.807-.575a.874.874,0,0,1,.631.287,2.42,2.42,0,0,1,.462.634c.116.231.229.481.345.748s.21.482.287.634a3.065,3.065,0,0,0,1.094,1.209,3.09,3.09,0,0,1,1.094,1.209c.077.231.228.807.46,1.73a3.794,3.794,0,0,0,.921,1.9,4.5,4.5,0,0,0,1.727.864,1.814,1.814,0,0,0,1.037-.114A2.761,2.761,0,0,1,135.8,47.7c.348.076.519.383.519.922q.69-.692.689-.922a4.862,4.862,0,0,0,.752,2.42,2.046,2.046,0,0,0,2.016.806l-.232,2.536a2.57,2.57,0,0,1-1.729.863,6.3,6.3,0,0,0-1.73.519,7.954,7.954,0,0,0-1.671,1.384c-.884.846-1.246,1.345-1.094,1.5q-1.956-2.19-5.876-1.267a28.992,28.992,0,0,0-5.992,1.383,8.383,8.383,0,0,0-2.536,1.728,3.624,3.624,0,0,0-.4.807q-.288.691-.575,1.267c-.195.383-.364.576-.518.576a2.959,2.959,0,0,0,1.556-1.093,6.67,6.67,0,0,1,1.094-1.095q2.993-1.958,4.961-1.374,2.534.692.805,1.845c-.151.153-.557.21-1.208.173a4.153,4.153,0,0,0-1.326.058,6.087,6.087,0,0,1,1.732.632.748.748,0,0,1,.344,1.095q1.842,1.038.692,2.306a4.166,4.166,0,0,1-3.572,1.267q.348,0,0,.461l-1.961,1.267q-.228.113-1.5.576a3.913,3.913,0,0,0-1.729,1.036,2.3,2.3,0,0,0-.345,1.385,6.119,6.119,0,0,1-.116,1.384c-.076.309-.384.383-.92.23q-.348.691-2.133,1.093a3.881,3.881,0,0,0-2.362,1.209,1.33,1.33,0,0,1-.116,1.845,1.474,1.474,0,0,1-2.42-.23,1.664,1.664,0,0,0-.865,1.153,2.138,2.138,0,0,1-.862,1.267c.539.845.459,1.462-.229,1.844a1.589,1.589,0,0,1,.516.231,8.663,8.663,0,0,1,.865.576,1.674,1.674,0,0,0,.575.347c-.307.69-.731,1.035-1.268,1.035q.692,1.845-1.726,4.034a5.293,5.293,0,0,1-1.442.922c-.656.307-1.25.556-1.789.748a3.759,3.759,0,0,0-.921.4,7.808,7.808,0,0,0-1.728,2.132,2.49,2.49,0,0,0-.174,2.133,2.6,2.6,0,0,0,2.134,1.384l.112.921V97.5l.116.923q.118.806.174,1.442a11.436,11.436,0,0,1,0,1.613c-.038.652-.211,1.018-.518,1.093a2.1,2.1,0,0,1-1.267-.23q-.926-.46-2.192-5.069A7.693,7.693,0,0,0,97.023,94.5a3.469,3.469,0,0,1-.978.748c-.267.116-.462.137-.574.058a7.589,7.589,0,0,1-.635-.518,7.7,7.7,0,0,0-.805-.632,6.117,6.117,0,0,0-2.018-.575,3.73,3.73,0,0,1-1.785-.576q-2.769,2.078-3.344-1.034a2.436,2.436,0,0,0,.058,1.556,9.039,9.039,0,0,1,.289,1.094q-.806,1.5-2.535.229-.692-.688-3.17-.172a6.623,6.623,0,0,1-3.284.172c.078,0,.23.115.461.346a3.145,3.145,0,0,1,.461.344,1.45,1.45,0,0,1-.347.691.49.49,0,0,1-.461.174,1.171,1.171,0,0,0-.519,0,1.943,1.943,0,0,0-.519.171,7.118,7.118,0,0,0-1.152,1.208,5.734,5.734,0,0,1-1.036,1.093,7.6,7.6,0,0,1,.634,2.823q-.06.982-.347,2.881a21.294,21.294,0,0,0-.289,3.055,10.593,10.593,0,0,0,1.095,4.263,7.311,7.311,0,0,0,2.593,3.342,6.815,6.815,0,0,0,2.766.574,6.733,6.733,0,0,0,2.765-.229,2.836,2.836,0,0,0,1.036-.805,3.9,3.9,0,0,0,.576-1.326q.231-.862.347-1.207a3.181,3.181,0,0,1,2.994-2.307,3.377,3.377,0,0,1,2.019.287,1.015,1.015,0,0,1,.517,1.1,5.8,5.8,0,0,1-.459,1.44c-.232.5-.519,1.055-.865,1.672a6.369,6.369,0,0,0-.63,1.386,19.207,19.207,0,0,0-.4,2.594,14.257,14.257,0,0,1-.29,2.018,6.706,6.706,0,0,0,1.728.113,2.737,2.737,0,0,1,.174-.749,3.277,3.277,0,0,0,.172-.632,2.275,2.275,0,0,0,1.845,1.036,1.752,1.752,0,0,0,1.845-.921q.232.346,1.384,1.731a4.98,4.98,0,0,1,1.268,2.3c.077.31.229.807.459,1.5a2.857,2.857,0,0,1,.232,1.442c-.077.265-.462.4-1.152.4a.531.531,0,0,0-.575.345,1.57,1.57,0,0,0,0,.863,7.745,7.745,0,0,0,.287.98,7.5,7.5,0,0,0,.459.98,2.128,2.128,0,0,1,.29.632q2.072,3.8,5.646,2.075,0,3.34-1.616,3.685C101.029,136.371,100.339,135.984,99.571,135.064Zm1.721,26.034a9.228,9.228,0,0,1-.221-1.84,4.241,4.241,0,0,1,.8-2.478,5.329,5.329,0,0,0,.921-2.362q-1.844-.46-1.385-3,.232-1.73,3.342-4.609,2.192-1.96,1.384-5.532a31.861,31.861,0,0,1-.578-4.38,39.207,39.207,0,0,0-.461-4.033c0,.229.364.441,1.1.632s1.171.442,1.325.746a6.979,6.979,0,0,0,.576-1.265,5.861,5.861,0,0,1,.688-1.384,3.924,3.924,0,0,1,.981-.865,11.316,11.316,0,0,1,.979-.632,8.823,8.823,0,0,0,1.034-.748q.808-.634,1.327-.978a3.829,3.829,0,0,1,1.383-.517.986.986,0,0,1,1.208.517q.578.693-.229,2.133t0,2.019a8.591,8.591,0,0,0,.229-1.5,2.788,2.788,0,0,1,.692-1.731,2.621,2.621,0,0,1,1.326-.8,1.641,1.641,0,0,1,1.149.173,10.249,10.249,0,0,1,1.21.805,3.241,3.241,0,0,0,1.268.632,14.271,14.271,0,0,1,4.149,2.536c-.077-.078-.077-.174,0-.29a1.213,1.213,0,0,1,.462-.345c.229-.113.439-.229.632-.345a3.228,3.228,0,0,1,.632-.286l.345-.116a3.958,3.958,0,0,0,1.151-.116,1.324,1.324,0,0,1,.979.232,7.853,7.853,0,0,1,.862.518c.155.113.423.324.807.632a10.12,10.12,0,0,1,.8.691c.232.152.655.423,1.268.807s1.1.691,1.442.919a3.025,3.025,0,0,1,.919,1.034,2.273,2.273,0,0,1,.29,1.5,18.193,18.193,0,0,1,2.766.92,4.137,4.137,0,0,0,1.442.4,2.778,2.778,0,0,1,1.441.518A71.229,71.229,0,0,1,101.292,161.1Z" transform="translate(0 0)" fill="#fff"/>
</svg>
